<svg width="16" height="16" viewBox="0 0 16 16" fill="none" xmlns="http://www.w3.org/2000/svg">
<path fill-rule="evenodd" clip-rule="evenodd" d="M8.00008 0.666748C5.97425 0.666748 4.33341 2.30758 4.33341 4.33341C4.33341 6.35925 5.97425 8.00008 8.00008 8.00008C10.0259 8.00008 11.6667 6.35925 11.6667 4.33341C11.6667 2.30758 10.0259 0.666748 8.00008 0.666748ZM9.92508 4.33341C9.92508 3.27008 9.06341 2.40841 8.00008 2.40841C6.93675 2.40841 6.07508 3.27008 6.07508 4.33341C6.07508 5.39675 6.93675 6.25841 8.00008 6.25841C9.06341 6.25841 9.92508 5.39675 9.92508 4.33341ZM13.5917 12.5834C13.5917 11.9967 10.7226 10.6584 8.00008 10.6584C5.27758 10.6584 2.40841 11.9967 2.40841 12.5834V13.5917H13.5917V12.5834ZM0.666748 12.5834C0.666748 10.1451 5.55258 8.91675 8.00008 8.91675C10.4476 8.91675 15.3334 10.1451 15.3334 12.5834V15.3334H0.666748V12.5834Z" fill="black"/>
</svg>
